<svg xmlns="http://www.w3.org/2000/svg" viewBox="0 0 100 100">
  <rect width="100" height="100" fill="#1f2937" />
  <g transform="translate(0, 8)">
    <path d="M 0,40 C 25,40, 50,20, 50,0 C 25,20, 0,20, 0,40 Z" fill="#00ffff" />
    <path d="M 100,40 C 75,40, 50,20, 50,0 C 75,20, 100,20, 100,40 Z" fill="#00ffff" />
    <path d="M 0,44 C 25,44, 50,64, 50,84 C 25,64, 0,64, 0,44 Z" fill="#00ffff" />
    <path d="M 100,44 C 75,44, 50,64, 50,84 C 75,64, 100,64, 100,44 Z" fill="#00ffff" />
  </g>
</svg>
